<svg xmlns="http://www.w3.org/2000/svg" viewBox="0 0 24 24" fill="currentColor">
  <path d="M12 .5a12 12 0 0 0-3.79 23.4c.6.11.82-.26.82-.58v-2.2c-3.34.73-4.04-1.61-4.04-1.61-.55-1.4-1.35-1.77-1.35-1.77-1.1-.75.08-.74.08-.74 1.22.09 1.86 1.26 1.86 1.26 1.08 1.86 2.83 1.32 3.52 1.01.11-.79.42-1.32.76-1.62-2.67-.3-5.47-1.34-5.47-5.95 0-1.31.47-2.38 1.24-3.22-.12-.3-.54-1.52.12-3.18 0 0 1.01-.32 3.3 1.23a11.5 11.5 0 0 1 6.01 0c2.29-1.55 3.3-1.23 3.3-1.23.66 1.66.24 2.88.12 3.18.77.84 1.24 1.91 1.24 3.22 0 4.62-2.81 5.65-5.49 5.95.43.37.81 1.1.81 2.22v3.29c0 .33.22.71.83.58A12 12 0 0 0 12 .5Z"/>
</svg>

